<svg width="21" height="20" viewBox="0 0 21 20" fill="none" xmlns="http://www.w3.org/2000/svg"><path fill-rule="evenodd" clip-rule="evenodd" d="M10.32 0C7.60417 0 7.26417 0.0116667 6.19751 0.06C2.56584 0.226667 0.547507 2.24167 0.380841 5.87667C0.331674 6.94417 0.320007 7.28417 0.320007 10C0.320007 12.7158 0.331674 13.0567 0.380007 14.1233C0.546674 17.755 2.56167 19.7733 6.19667 19.94C7.26417 19.9883 7.60417 20 10.32 20C13.0358 20 13.3767 19.9883 14.4433 19.94C18.0717 19.7733 20.095 17.7583 20.2592 14.1233C20.3083 13.0567 20.32 12.7158 20.32 10C20.32 7.28417 20.3083 6.94417 20.26 5.8775C20.0967 2.24917 18.0792 0.2275 14.4442 0.0608333C13.3767 0.0116667 13.0358 0 10.32 0ZM10.32 1.8025C12.99 1.8025 13.3067 1.8125 14.3617 1.86083C17.0717 1.98417 18.3375 3.27 18.4608 5.96C18.5092 7.01417 18.5183 7.33083 18.5183 10.0008C18.5183 12.6717 18.5083 12.9875 18.4608 14.0417C18.3367 16.7292 17.0742 18.0175 14.3617 18.1408C13.3067 18.1892 12.9917 18.1992 10.32 18.1992C7.65001 18.1992 7.33334 18.1892 6.27917 18.1408C3.56251 18.0167 2.30334 16.725 2.18001 14.0408C2.13167 12.9867 2.12167 12.6708 2.12167 10C2.12167 7.33 2.13251 7.01417 2.18001 5.95917C2.30417 3.27 3.56667 1.98333 6.27917 1.86C7.33417 1.8125 7.65001 1.8025 10.32 1.8025ZM5.18501 10C5.18501 7.16417 7.48417 4.865 10.32 4.865C13.1558 4.865 15.455 7.16417 15.455 10C15.455 12.8367 13.1558 15.1358 10.32 15.1358C7.48417 15.1358 5.18501 12.8358 5.18501 10ZM10.32 13.3333C8.47917 13.3333 6.98667 11.8417 6.98667 10C6.98667 8.15917 8.47917 6.66667 10.32 6.66667C12.1608 6.66667 13.6533 8.15917 13.6533 10C13.6533 11.8417 12.1608 13.3333 10.32 13.3333ZM14.4575 4.6625C14.4575 4 14.995 3.4625 15.6583 3.4625C16.3208 3.4625 16.8575 4 16.8575 4.6625C16.8575 5.325 16.3208 5.8625 15.6583 5.8625C14.995 5.8625 14.4575 5.325 14.4575 4.6625Z" fill="url(#paint0_linear)"/><defs><linearGradient id="paint0_linear" x1="10.32" y1="25" x2="20.32" y2="5" gradientUnits="userSpaceOnUse"><stop stop-color="#FFC593"/><stop offset="0.519452" stop-color="#BC7198"/><stop offset="1" stop-color="#5A77FF"/></linearGradient></defs></svg>