<svg width="21" height="20" viewBox="0 0 21 20" fill="none" xmlns="http://www.w3.org/2000/svg"><path d="M10.99 0C5.46749 0 0.98999 4.47667 0.98999 10C0.98999 14.2367 3.62582 17.855 7.34582 19.3117C7.25832 18.5208 7.17916 17.3075 7.38082 16.4442C7.56249 15.6633 8.55332 11.4733 8.55332 11.4733C8.55332 11.4733 8.25416 10.8742 8.25416 9.98833C8.25416 8.59833 9.05999 7.56 10.0633 7.56C10.9158 7.56 11.3283 8.20083 11.3283 8.96833C11.3283 9.82583 10.7825 11.1083 10.5 12.2975C10.2642 13.2925 10.9992 14.105 11.9808 14.105C13.7583 14.105 15.1242 12.2308 15.1242 9.52583C15.1242 7.13167 13.4042 5.4575 10.9475 5.4575C8.10249 5.4575 6.43249 7.59167 6.43249 9.79667C6.43249 10.6558 6.76332 11.5783 7.17666 12.0783C7.25832 12.1775 7.26999 12.265 7.24582 12.3658L6.96832 13.4992C6.92416 13.6825 6.82332 13.7217 6.63332 13.6333C5.38416 13.0517 4.60332 11.2258 4.60332 9.75917C4.60332 6.605 6.89499 3.7075 11.2108 3.7075C14.68 3.7075 17.3758 6.18 17.3758 9.48333C17.3758 12.93 15.2033 15.7033 12.1867 15.7033C11.1733 15.7033 10.2208 15.1775 9.89499 14.555L9.27166 16.9325C9.04582 17.8017 8.43666 18.8908 8.02832 19.5542C8.96499 19.8433 9.95916 20 10.99 20C16.5125 20 20.99 15.5225 20.99 10C20.99 4.47667 16.5125 0 10.99 0Z" fill="url(#paint0_linear)"/><defs><linearGradient id="paint0_linear" x1="10.99" y1="-10" x2="-9.01001" y2="10" gradientUnits="userSpaceOnUse"><stop stop-color="#F6C683"/><stop offset="1" stop-color="#DE3838"/></linearGradient></defs></svg>