<svg width="21" height="18" viewBox="0 0 21 18" fill="none" xmlns="http://www.w3.org/2000/svg"><path d="M20.66 2.79746C19.9242 3.12412 19.1334 3.34412 18.3034 3.44329C19.1509 2.93579 19.8017 2.13162 20.1075 1.17329C19.315 1.64329 18.4367 1.98496 17.5017 2.16912C16.7542 1.37162 15.6867 0.873291 14.5067 0.873291C11.8575 0.873291 9.91087 3.34496 10.5092 5.91079C7.10003 5.73996 4.0767 4.10662 2.05253 1.62412C0.977534 3.46829 1.49503 5.88079 3.3217 7.10246C2.65003 7.08079 2.0167 6.89662 1.4642 6.58912C1.4192 8.48996 2.7817 10.2683 4.75503 10.6641C4.17753 10.8208 3.54503 10.8575 2.9017 10.7341C3.42337 12.3641 4.93837 13.55 6.73503 13.5833C5.01003 14.9358 2.8367 15.54 0.660034 15.2833C2.47587 16.4475 4.63337 17.1266 6.95003 17.1266C14.5684 17.1266 18.8725 10.6925 18.6125 4.92162C19.4142 4.34246 20.11 3.61996 20.66 2.79746Z" fill="url(#paint0_linear)"/><defs><linearGradient id="paint0_linear" x1="10.66" y1="-7.25338" x2="-5.24978" y2="12.3239" gradientUnits="userSpaceOnUse"><stop stop-color="#65FFEB"/><stop offset="1" stop-color="#27718A"/></linearGradient></defs></svg>