<svg width="21" height="20" viewBox="0 0 21 20" fill="none" xmlns="http://www.w3.org/2000/svg"><path fill-rule="evenodd" clip-rule="evenodd" d="M10.3334 0C4.81087 0 0.333374 4.4775 0.333374 10C0.333374 15.5225 4.81087 20 10.3334 20C15.8559 20 20.3334 15.5225 20.3334 10C20.3334 4.4775 15.8559 0 10.3334 0ZM14.0342 14.0767C12.2825 14.1967 8.38087 14.1967 6.63171 14.0767C4.73504 13.9467 4.51421 13.0183 4.50004 10C4.51421 6.97583 4.73754 6.05333 6.63171 5.92333C8.38087 5.80333 12.2834 5.80333 14.0342 5.92333C15.9317 6.05333 16.1517 6.98167 16.1667 10C16.1517 13.0242 15.9292 13.9467 14.0342 14.0767ZM12.7642 9.99667L8.66671 8.04833V11.9517L12.7642 9.99667Z" fill="white"/></svg>